<svg xmlns="http://www.w3.org/2000/svg" viewBox="0 0 100 100">
  <defs>
    <linearGradient id="groupGrad" x1="0%" y1="0%" x2="100%" y2="100%">
      <stop offset="0%" style="stop-color:#8b5cf6;stop-opacity:1" />
      <stop offset="100%" style="stop-color:#4c1d95;stop-opacity:1" />
    </linearGradient>
  </defs>
  <circle cx="50" cy="50" r="50" fill="url(#groupGrad)"/>
  <path d="M50 45c5.52 0 10-4.48 10-10s-4.48-10-10-10-10 4.48-10 10 4.48 10 10 10zm18-5c4.42 0 8-3.58 8-8s-3.58-8-8-8-8 3.58-8 8 3.58 8 8 8zm-36 0c4.42 0 8-3.58 8-8s-3.58-8-8-8-8 3.58-8 8 3.58 8 8 8zm36 12c-8.33 0-25 4.17-25 12.5v4.5h50v-4.5c0-8.33-16.67-12.5-25-12.5zm-36 0c-.8 0-1.74.05-2.73.13 3.96 2.92 6.73 7.07 6.73 12.37v4.5h-20v-4.5c0-8.33 16.67-12.5 25-12.5zm18 3c-6.8 0-13.6 3.4-13.6 10.2v1.8h27.2v-1.8c0-6.8-6.8-10.2-13.6-10.2z" fill="#ffffff" opacity="0.9"/>
</svg>
